<?xml version="1.0" encoding="UTF-8"?>
<svg id="Layer_2" xmlns="http://www.w3.org/2000/svg" viewBox="0 0 225.78 33.74">
  <defs>
    <style>
      .cls-1 {
        fill: #fff;
      }
    </style>
  </defs>
  <g id="Layer_1-2" data-name="Layer_1">
    <g id="EURONICS">
      <path class="cls-1" d="M0,33.04h23.69v-7.23H7.73v-5.92h11.59v-6.48H7.73v-5.55h15.73V.65H0v32.39ZM54.46.67h-7.67v17.73c0,5.56-2.17,7.97-6.33,7.97s-6.33-2.41-6.33-7.97V.67h-7.85v17.96c0,9.77,5.59,15.1,14.1,15.1s14.1-5.33,14.1-15.1V.67h-.01ZM74.84,33.02h9.2l-7.4-12.2c3.93-1.48,6.1-4.75,6.1-9.2,0-6.7-4.75-10.95-12.89-10.95h-12.29v32.34h7.77v-10.67h3.47s6.05,10.67,6.05,10.67ZM65.31,16.15V7.7h4.98c3,0,4.48,1.62,4.48,4.3s-1.57,4.15-4.43,4.15h-5.03ZM142.67,33.04h7.9V.64h-7.76v11.25c0,3.52.05,7.68.05,7.73h-.14L128.96.64h-7.85v32.42h7.76v-11.12c0-4.21-.1-8.19-.1-8.24h.13l13.77,19.35h0ZM189.7,21.42c-1.3,2.68-3.93,4.91-8.18,4.91-4.99,0-8.55-3.75-8.55-9.48s3.33-9.53,8.6-9.53c3.47,0,6.1,1.52,7.77,4.12l7.67-2.09c-2.17-5.22-7.62-9.34-15.07-9.34-9.65,0-16.77,6.89-16.77,16.75s7.12,16.94,16.77,16.94c7.02,0,12.99-3.94,15.39-10.23l-7.62-2.04h-.01ZM199.34,24.94c1.85,7.04,8.22,8.75,13.87,8.75,7.9,0,12.57-3.34,12.57-10s-5.27-9.02-10.03-9.94c-4.53-.92-7.62-1.34-7.62-4.07,0-1.72,1.25-2.87,4.21-2.87,3.23,0,5.08,1.3,5.87,3.65l7.4-1.99C223.81,2.68,219.09,0,212.49,0,205.24,0,200.24,3.28,200.24,9.91s5.45,8.88,9.85,9.95c3.97.97,7.85.78,7.85,3.88,0,2.09-1.8,3.1-4.75,3.1-3.52,0-5.78-1.43-6.42-3.88l-7.4,1.99h-.02ZM101.43,0c8.66,0,16.66,2.04,16.66,16.84s-8.01,16.84-16.66,16.84-16.66-2.04-16.66-16.84S92.77,0,101.43,0M101.43,26.76c4.78,0,8.24,0,8.24-9.92s-3.63-9.92-8.24-9.92-8.24,0-8.24,9.92,3.46,9.92,8.24,9.92M153.21,33.04h9.7V.67h-9.7v6.96h8.09l-8.09,7.25v18.17h0Z"/>
    </g>
  </g>
</svg>